<svg width="89" height="89" viewBox="0 0 89 89" fill="none" xmlns="http://www.w3.org/2000/svg">
<path d="M88.8393 0H0V88.8393L88.8393 0Z" fill="url(#paint0_linear_1_19)"/>
<path d="M18.8372 6.0836V8.02277C18.7652 8.11811 18.6524 8.22274 18.4989 8.33667C18.3478 8.44828 18.1467 8.54477 17.8956 8.62615C17.6444 8.70753 17.3317 8.74822 16.9574 8.74822C16.6388 8.74822 16.347 8.69474 16.0819 8.58779C15.8169 8.4785 15.5878 8.31923 15.3949 8.10997C15.2042 7.9007 15.0566 7.6461 14.9519 7.34616C14.8473 7.04389 14.795 6.69977 14.795 6.31379V5.96153C14.795 5.57788 14.8426 5.23608 14.938 4.93614C15.0356 4.63387 15.1751 4.3781 15.3565 4.16884C15.5379 3.95958 15.7564 3.80147 16.0122 3.69451C16.2703 3.58523 16.5621 3.53059 16.8876 3.53059C17.3038 3.53059 17.6479 3.60034 17.92 3.73985C18.1943 3.87703 18.4059 4.0677 18.5547 4.31184C18.7035 4.55598 18.7977 4.835 18.8372 5.14889H17.9793C17.9514 4.97218 17.8967 4.81407 17.8153 4.67456C17.7363 4.53505 17.6224 4.42577 17.4735 4.34671C17.3271 4.26533 17.1364 4.22464 16.9016 4.22464C16.6993 4.22464 16.5214 4.26301 16.3679 4.33974C16.2145 4.41647 16.0866 4.52924 15.9843 4.67805C15.8843 4.82686 15.8087 5.00822 15.7576 5.22213C15.7064 5.43605 15.6809 5.68019 15.6809 5.95455V6.31379C15.6809 6.59281 15.7099 6.84044 15.768 7.05668C15.8285 7.27291 15.9145 7.45544 16.0261 7.60425C16.1401 7.75306 16.2784 7.86583 16.4412 7.94256C16.6039 8.01696 16.7876 8.05416 16.9922 8.05416C17.1922 8.05416 17.3561 8.03789 17.484 8.00534C17.6119 7.97046 17.713 7.92977 17.7874 7.88327C17.8642 7.83444 17.9235 7.78793 17.9653 7.74376V6.7358H16.9085V6.0836H18.8372ZM23.8561 5.9999V6.27891C23.8561 6.66256 23.8061 7.00668 23.7061 7.31128C23.6061 7.61587 23.4631 7.87513 23.2771 8.08904C23.0934 8.30296 22.8725 8.46688 22.6144 8.58081C22.3564 8.69242 22.0704 8.74822 21.7565 8.74822C21.4449 8.74822 21.1601 8.69242 20.902 8.58081C20.6462 8.46688 20.4242 8.30296 20.2358 8.08904C20.0475 7.87513 19.901 7.61587 19.7964 7.31128C19.6941 7.00668 19.6429 6.66256 19.6429 6.27891V5.9999C19.6429 5.61625 19.6941 5.27329 19.7964 4.97102C19.8987 4.66642 20.0428 4.40717 20.2288 4.19325C20.4172 3.97702 20.6392 3.81309 20.895 3.70149C21.1531 3.58755 21.4379 3.53059 21.7495 3.53059C22.0634 3.53059 22.3494 3.58755 22.6075 3.70149C22.8656 3.81309 23.0876 3.97702 23.2736 4.19325C23.4596 4.40717 23.6026 4.66642 23.7026 4.97102C23.8049 5.27329 23.8561 5.61625 23.8561 5.9999ZM22.9807 6.27891V5.99292C22.9807 5.70925 22.9528 5.4593 22.897 5.24306C22.8435 5.0245 22.7633 4.84197 22.6563 4.69549C22.5517 4.54668 22.4226 4.43507 22.2692 4.36067C22.1157 4.28394 21.9425 4.24557 21.7495 4.24557C21.5565 4.24557 21.3844 4.28394 21.2333 4.36067C21.0822 4.43507 20.9531 4.54668 20.8462 4.69549C20.7415 4.84197 20.6613 5.0245 20.6055 5.24306C20.5497 5.4593 20.5218 5.70925 20.5218 5.99292V6.27891C20.5218 6.56258 20.5497 6.8137 20.6055 7.03226C20.6613 7.25083 20.7427 7.43567 20.8497 7.58681C20.9589 7.73562 21.0892 7.84839 21.2403 7.92512C21.3914 7.99952 21.5635 8.03673 21.7565 8.03673C21.9518 8.03673 22.125 7.99952 22.2761 7.92512C22.4273 7.84839 22.5552 7.73562 22.6598 7.58681C22.7644 7.43567 22.8435 7.25083 22.897 7.03226C22.9528 6.8137 22.9807 6.56258 22.9807 6.27891ZM26.2068 8.67847H25.1221L25.1291 7.98441H26.2068C26.5207 7.98441 26.7834 7.91582 26.995 7.77863C27.2089 7.64145 27.3694 7.44498 27.4763 7.18921C27.5856 6.93344 27.6403 6.62885 27.6403 6.27543V5.9999C27.6403 5.72553 27.6089 5.48255 27.5461 5.27096C27.4856 5.05937 27.395 4.8815 27.274 4.73734C27.1555 4.59318 27.009 4.4839 26.8346 4.40949C26.6625 4.33509 26.4637 4.29789 26.2382 4.29789H25.1012V3.60034H26.2382C26.5753 3.60034 26.8834 3.65731 27.1624 3.77124C27.4415 3.88285 27.6821 4.04445 27.8844 4.25603C28.089 4.46762 28.246 4.72106 28.3552 5.01636C28.4645 5.31165 28.5192 5.64182 28.5192 6.00687V6.27543C28.5192 6.64047 28.4645 6.97065 28.3552 7.26594C28.246 7.56123 28.089 7.81467 27.8844 8.02626C27.6798 8.23553 27.4356 8.39712 27.152 8.51106C26.8706 8.62266 26.5556 8.67847 26.2068 8.67847ZM25.6069 3.60034V8.67847H24.7315V3.60034H25.6069ZM31.2989 4.27696L29.7817 8.67847H28.8644L30.7757 3.60034H31.3617L31.2989 4.27696ZM32.5684 8.67847L31.0478 4.27696L30.9815 3.60034H31.5709L33.4892 8.67847H32.5684ZM32.4952 6.7951V7.48915H29.7329V6.7951H32.4952ZM35.533 8.67847H34.4483L34.4553 7.98441H35.533C35.8469 7.98441 36.1096 7.91582 36.3212 7.77863C36.5351 7.64145 36.6955 7.44498 36.8025 7.18921C36.9118 6.93344 36.9664 6.62885 36.9664 6.27543V5.9999C36.9664 5.72553 36.935 5.48255 36.8723 5.27096C36.8118 5.05937 36.7211 4.8815 36.6002 4.73734C36.4816 4.59318 36.3352 4.4839 36.1608 4.40949C35.9887 4.33509 35.7899 4.29789 35.5644 4.29789H34.4274V3.60034H35.5644C35.9015 3.60034 36.2096 3.65731 36.4886 3.77124C36.7676 3.88285 37.0083 4.04445 37.2106 4.25603C37.4152 4.46762 37.5721 4.72106 37.6814 5.01636C37.7907 5.31165 37.8453 5.64182 37.8453 6.00687V6.27543C37.8453 6.64047 37.7907 6.97065 37.6814 7.26594C37.5721 7.56123 37.4152 7.81467 37.2106 8.02626C37.006 8.23553 36.7618 8.39712 36.4781 8.51106C36.1968 8.62266 35.8817 8.67847 35.533 8.67847ZM34.9331 3.60034V8.67847H34.0577V3.60034H34.9331ZM40.1995 8.67847H39.1149L39.1218 7.98441H40.1995C40.5134 7.98441 40.7762 7.91582 40.9878 7.77863C41.2017 7.64145 41.3621 7.44498 41.4691 7.18921C41.5784 6.93344 41.633 6.62885 41.633 6.27543V5.9999C41.633 5.72553 41.6016 5.48255 41.5388 5.27096C41.4784 5.05937 41.3877 4.8815 41.2668 4.73734C41.1482 4.59318 41.0017 4.4839 40.8273 4.40949C40.6553 4.33509 40.4565 4.29789 40.2309 4.29789H39.0939V3.60034H40.2309C40.5681 3.60034 40.8762 3.65731 41.1552 3.77124C41.4342 3.88285 41.6749 4.04445 41.8771 4.25603C42.0818 4.46762 42.2387 4.72106 42.348 5.01636C42.4573 5.31165 42.5119 5.64182 42.5119 6.00687V6.27543C42.5119 6.64047 42.4573 6.97065 42.348 7.26594C42.2387 7.56123 42.0818 7.81467 41.8771 8.02626C41.6725 8.23553 41.4284 8.39712 41.1447 8.51106C40.8634 8.62266 40.5483 8.67847 40.1995 8.67847ZM39.5997 3.60034V8.67847H38.7242V3.60034H39.5997ZM43.7221 3.60034L44.901 6.02431L46.0798 3.60034H47.0494L45.3405 6.80905V8.67847H44.4581V6.80905L42.7491 3.60034H43.7221ZM46.7879 8.25994C46.7879 8.12973 46.832 8.02045 46.9204 7.93209C47.0087 7.84141 47.1285 7.79607 47.2796 7.79607C47.4331 7.79607 47.5528 7.84141 47.6389 7.93209C47.7272 8.02045 47.7714 8.12973 47.7714 8.25994C47.7714 8.39015 47.7272 8.49943 47.6389 8.58779C47.5528 8.67614 47.4331 8.72032 47.2796 8.72032C47.1285 8.72032 47.0087 8.67614 46.9204 8.58779C46.832 8.49943 46.7879 8.39015 46.7879 8.25994ZM51.8241 7.02529H52.6961C52.6682 7.35778 52.5752 7.65424 52.417 7.91466C52.2589 8.17275 52.0369 8.3762 51.7509 8.52501C51.4649 8.67382 51.1173 8.74822 50.7081 8.74822C50.3942 8.74822 50.1117 8.69242 49.8605 8.58081C49.6094 8.46688 49.3944 8.30644 49.2153 8.0995C49.0363 7.89024 48.8991 7.63796 48.8038 7.34267C48.7108 7.04737 48.6643 6.7172 48.6643 6.35216V5.93014C48.6643 5.56509 48.7119 5.23492 48.8073 4.93963C48.9049 4.64433 49.0444 4.39206 49.2258 4.18279C49.4071 3.9712 49.6245 3.80961 49.878 3.698C50.1337 3.58639 50.4209 3.53059 50.7394 3.53059C51.144 3.53059 51.4858 3.60499 51.7648 3.7538C52.0439 3.90261 52.2601 4.10839 52.4136 4.37113C52.5693 4.63387 52.6647 4.93498 52.6995 5.27445H51.8276C51.8044 5.05588 51.7532 4.86871 51.6742 4.71293C51.5974 4.55714 51.4835 4.43856 51.3324 4.35718C51.1812 4.27347 50.9836 4.23162 50.7394 4.23162C50.5395 4.23162 50.3651 4.26882 50.2163 4.34323C50.0675 4.41763 49.9431 4.52691 49.8431 4.67107C49.7431 4.81523 49.6676 4.99311 49.6164 5.20469C49.5676 5.41396 49.5432 5.65345 49.5432 5.92317V6.35216C49.5432 6.60792 49.5652 6.84044 49.6094 7.0497C49.6559 7.25664 49.7257 7.43451 49.8187 7.58332C49.914 7.73213 50.0349 7.84723 50.1814 7.92861C50.3279 8.00999 50.5034 8.05068 50.7081 8.05068C50.9569 8.05068 51.158 8.01115 51.3114 7.93209C51.4672 7.85304 51.5846 7.73794 51.6637 7.58681C51.7451 7.43335 51.7986 7.24618 51.8241 7.02529ZM57.5405 5.9999V6.27891C57.5405 6.66256 57.4905 7.00668 57.3905 7.31128C57.2906 7.61587 57.1476 7.87513 56.9615 8.08904C56.7779 8.30296 56.557 8.46688 56.2989 8.58081C56.0408 8.69242 55.7548 8.74822 55.4409 8.74822C55.1293 8.74822 54.8445 8.69242 54.5864 8.58081C54.3306 8.46688 54.1086 8.30296 53.9203 8.08904C53.7319 7.87513 53.5854 7.61587 53.4808 7.31128C53.3785 7.00668 53.3273 6.66256 53.3273 6.27891V5.9999C53.3273 5.61625 53.3785 5.27329 53.4808 4.97102C53.5831 4.66642 53.7273 4.40717 53.9133 4.19325C54.1016 3.97702 54.3237 3.81309 54.5794 3.70149C54.8375 3.58755 55.1224 3.53059 55.4339 3.53059C55.7478 3.53059 56.0338 3.58755 56.2919 3.70149C56.55 3.81309 56.772 3.97702 56.9581 4.19325C57.1441 4.40717 57.2871 4.66642 57.387 4.97102C57.4894 5.27329 57.5405 5.61625 57.5405 5.9999ZM56.6651 6.27891V5.99292C56.6651 5.70925 56.6372 5.4593 56.5814 5.24306C56.5279 5.0245 56.4477 4.84197 56.3407 4.69549C56.2361 4.54668 56.1071 4.43507 55.9536 4.36067C55.8001 4.28394 55.6269 4.24557 55.4339 4.24557C55.2409 4.24557 55.0689 4.28394 54.9177 4.36067C54.7666 4.43507 54.6376 4.54668 54.5306 4.69549C54.426 4.84197 54.3458 5.0245 54.29 5.24306C54.2341 5.4593 54.2062 5.70925 54.2062 5.99292V6.27891C54.2062 6.56258 54.2341 6.8137 54.29 7.03226C54.3458 7.25083 54.4271 7.43567 54.5341 7.58681C54.6434 7.73562 54.7736 7.84839 54.9247 7.92512C55.0759 7.99952 55.2479 8.03673 55.4409 8.03673C55.6362 8.03673 55.8094 7.99952 55.9606 7.92512C56.1117 7.84839 56.2396 7.73562 56.3442 7.58681C56.4489 7.43567 56.5279 7.25083 56.5814 7.03226C56.6372 6.8137 56.6651 6.56258 56.6651 6.27891ZM58.7717 3.60034H59.5529L61.0213 7.51705L62.4861 3.60034H63.2674L61.3282 8.67847H60.7074L58.7717 3.60034ZM58.4159 3.60034H59.1588L59.2879 6.99041V8.67847H58.4159V3.60034ZM62.8802 3.60034H63.6266V8.67847H62.7512V6.99041L62.8802 3.60034Z" fill="#424242"/>
<path d="M17.8188 15.4065C17.8188 15.3018 17.8026 15.2088 17.77 15.1274C17.7398 15.0461 17.6851 14.9717 17.6061 14.9042C17.527 14.8368 17.4154 14.7717 17.2713 14.7089C17.1294 14.6438 16.9481 14.5775 16.7272 14.5101C16.4854 14.4357 16.2621 14.3532 16.0575 14.2625C15.8552 14.1695 15.6785 14.0625 15.5274 13.9416C15.3763 13.8184 15.2588 13.6777 15.1751 13.5196C15.0914 13.3592 15.0496 13.1743 15.0496 12.9651C15.0496 12.7581 15.0926 12.5698 15.1786 12.4C15.267 12.2303 15.3914 12.0838 15.5518 11.9606C15.7146 11.835 15.9064 11.7385 16.1273 11.6711C16.3482 11.6014 16.5923 11.5665 16.8597 11.5665C17.2364 11.5665 17.5607 11.6362 17.8328 11.7757C18.1071 11.9152 18.3176 12.1024 18.4641 12.3373C18.6129 12.5721 18.6873 12.8314 18.6873 13.115H17.8188C17.8188 12.9476 17.7828 12.8 17.7107 12.6721C17.641 12.5419 17.534 12.4396 17.3898 12.3652C17.248 12.2908 17.0678 12.2536 16.8492 12.2536C16.6423 12.2536 16.4702 12.2849 16.3331 12.3477C16.1959 12.4105 16.0936 12.4954 16.0261 12.6023C15.9587 12.7093 15.925 12.8302 15.925 12.9651C15.925 13.0604 15.9471 13.1476 15.9913 13.2266C16.0354 13.3034 16.1029 13.3754 16.1936 13.4429C16.2842 13.508 16.3982 13.5696 16.5353 13.6277C16.6725 13.6858 16.8341 13.7417 17.0201 13.7951C17.3015 13.8788 17.5468 13.9718 17.7561 14.0741C17.9653 14.1741 18.1397 14.2881 18.2792 14.4159C18.4187 14.5438 18.5234 14.6892 18.5931 14.8519C18.6629 15.0123 18.6977 15.1949 18.6977 15.3995C18.6977 15.6134 18.6547 15.8064 18.5687 15.9784C18.4827 16.1482 18.3594 16.2935 18.199 16.4144C18.0409 16.533 17.8502 16.6248 17.627 16.6899C17.4061 16.7527 17.1597 16.7841 16.8876 16.7841C16.6435 16.7841 16.4028 16.7516 16.1657 16.6865C15.9308 16.6213 15.7169 16.5225 15.5239 16.39C15.3309 16.2551 15.1775 16.0877 15.0635 15.8878C14.9496 15.6855 14.8926 15.4495 14.8926 15.1798H15.768C15.768 15.3448 15.796 15.4855 15.8518 15.6018C15.9099 15.718 15.9901 15.8134 16.0924 15.8878C16.1947 15.9598 16.3133 16.0133 16.4482 16.0482C16.5853 16.0831 16.7318 16.1005 16.8876 16.1005C17.0922 16.1005 17.2631 16.0715 17.4003 16.0133C17.5398 15.9552 17.6444 15.8738 17.7142 15.7692C17.784 15.6646 17.8188 15.5436 17.8188 15.4065ZM20.4067 11.6362V16.7144H19.5313V11.6362H20.4067ZM23.4794 11.6362V16.7144H22.611V11.6362H23.4794ZM25.0733 11.6362V12.3338H21.031V11.6362H25.0733ZM29.0667 16.0203V16.7144H26.3707V16.0203H29.0667ZM26.6184 11.6362V16.7144H25.7429V11.6362H26.6184ZM28.7145 13.7568V14.4404H26.3707V13.7568H28.7145ZM29.0493 11.6362V12.3338H26.3707V11.6362H29.0493ZM34.2321 15.4065C34.2321 15.3018 34.2158 15.2088 34.1832 15.1274C34.153 15.0461 34.0984 14.9717 34.0193 14.9042C33.9403 14.8368 33.8286 14.7717 33.6845 14.7089C33.5426 14.6438 33.3613 14.5775 33.1404 14.5101C32.8986 14.4357 32.6754 14.3532 32.4708 14.2625C32.2685 14.1695 32.0918 14.0625 31.9406 13.9416C31.7895 13.8184 31.6721 13.6777 31.5884 13.5196C31.5047 13.3592 31.4628 13.1743 31.4628 12.9651C31.4628 12.7581 31.5058 12.5698 31.5918 12.4C31.6802 12.2303 31.8046 12.0838 31.965 11.9606C32.1278 11.835 32.3196 11.7385 32.5405 11.6711C32.7614 11.6014 33.0055 11.5665 33.2729 11.5665C33.6496 11.5665 33.974 11.6362 34.246 11.7757C34.5204 11.9152 34.7308 12.1024 34.8773 12.3373C35.0261 12.5721 35.1005 12.8314 35.1005 13.115H34.2321C34.2321 12.9476 34.196 12.8 34.1239 12.6721C34.0542 12.5419 33.9472 12.4396 33.8031 12.3652C33.6612 12.2908 33.481 12.2536 33.2625 12.2536C33.0555 12.2536 32.8835 12.2849 32.7463 12.3477C32.6091 12.4105 32.5068 12.4954 32.4394 12.6023C32.3719 12.7093 32.3382 12.8302 32.3382 12.9651C32.3382 13.0604 32.3603 13.1476 32.4045 13.2266C32.4487 13.3034 32.5161 13.3754 32.6068 13.4429C32.6975 13.508 32.8114 13.5696 32.9486 13.6277C33.0858 13.6858 33.2474 13.7417 33.4334 13.7951C33.7147 13.8788 33.96 13.9718 34.1693 14.0741C34.3785 14.1741 34.5529 14.2881 34.6924 14.4159C34.8319 14.5438 34.9366 14.6892 35.0063 14.8519C35.0761 15.0123 35.111 15.1949 35.111 15.3995C35.111 15.6134 35.0679 15.8064 34.9819 15.9784C34.8959 16.1482 34.7727 16.2935 34.6122 16.4144C34.4541 16.533 34.2634 16.6248 34.0402 16.6899C33.8193 16.7527 33.5729 16.7841 33.3008 16.7841C33.0567 16.7841 32.816 16.7516 32.5789 16.6865C32.344 16.6213 32.1301 16.5225 31.9371 16.39C31.7441 16.2551 31.5907 16.0877 31.4768 15.8878C31.3628 15.6855 31.3059 15.4495 31.3059 15.1798H32.1813C32.1813 15.3448 32.2092 15.4855 32.265 15.6018C32.3231 15.718 32.4033 15.8134 32.5056 15.8878C32.6079 15.9598 32.7265 16.0133 32.8614 16.0482C32.9986 16.0831 33.145 16.1005 33.3008 16.1005C33.5054 16.1005 33.6763 16.0715 33.8135 16.0133C33.953 15.9552 34.0577 15.8738 34.1274 15.7692C34.1972 15.6646 34.2321 15.5436 34.2321 15.4065ZM39.209 16.0203V16.7144H36.513V16.0203H39.209ZM36.7607 11.6362V16.7144H35.8852V11.6362H36.7607ZM38.8568 13.7568V14.4404H36.513V13.7568H38.8568ZM39.1916 11.6362V12.3338H36.513V11.6362H39.1916ZM42.9235 15.0612H43.7954C43.7675 15.3937 43.6745 15.6901 43.5164 15.9505C43.3583 16.2086 43.1362 16.4121 42.8502 16.5609C42.5642 16.7097 42.2166 16.7841 41.8074 16.7841C41.4935 16.7841 41.211 16.7283 40.9599 16.6167C40.7088 16.5028 40.4937 16.3423 40.3146 16.1354C40.1356 15.9261 39.9984 15.6739 39.9031 15.3786C39.8101 15.0833 39.7636 14.7531 39.7636 14.388V13.966C39.7636 13.601 39.8113 13.2708 39.9066 12.9755C40.0042 12.6802 40.1437 12.4279 40.3251 12.2187C40.5065 12.0071 40.7239 11.8455 40.9773 11.7339C41.2331 11.6223 41.5202 11.5665 41.8388 11.5665C42.2434 11.5665 42.5852 11.6409 42.8642 11.7897C43.1432 11.9385 43.3594 12.1443 43.5129 12.407C43.6687 12.6698 43.764 12.9709 43.7989 13.3103H42.9269C42.9037 13.0918 42.8525 12.9046 42.7735 12.7488C42.6968 12.593 42.5828 12.4744 42.4317 12.3931C42.2806 12.3094 42.0829 12.2675 41.8388 12.2675C41.6388 12.2675 41.4644 12.3047 41.3156 12.3791C41.1668 12.4535 41.0424 12.5628 40.9424 12.707C40.8425 12.8511 40.7669 13.029 40.7157 13.2406C40.6669 13.4498 40.6425 13.6893 40.6425 13.9591V14.388C40.6425 14.6438 40.6646 14.8763 40.7088 15.0856C40.7553 15.2925 40.825 15.4704 40.918 15.6192C41.0134 15.768 41.1343 15.8831 41.2807 15.9645C41.4272 16.0459 41.6028 16.0866 41.8074 16.0866C42.0562 16.0866 42.2573 16.047 42.4108 15.968C42.5666 15.8889 42.684 15.7738 42.763 15.6227C42.8444 15.4692 42.8979 15.2821 42.9235 15.0612ZM47.4401 11.6362H48.312V15.0298C48.312 15.4158 48.2283 15.739 48.0609 15.9994C47.8935 16.2598 47.6656 16.4563 47.3773 16.5888C47.0913 16.719 46.7716 16.7841 46.4182 16.7841C46.0531 16.7841 45.7276 16.719 45.4416 16.5888C45.1556 16.4563 44.9301 16.2598 44.765 15.9994C44.6022 15.739 44.5208 15.4158 44.5208 15.0298V11.6362H45.3928V15.0298C45.3928 15.2739 45.4346 15.4751 45.5183 15.6332C45.602 15.7889 45.7206 15.904 45.8741 15.9784C46.0275 16.0529 46.2089 16.0901 46.4182 16.0901C46.6274 16.0901 46.8076 16.0529 46.9588 15.9784C47.1122 15.904 47.2308 15.7889 47.3145 15.6332C47.3982 15.4751 47.4401 15.2739 47.4401 15.0298V11.6362ZM49.2641 11.6362H51.0603C51.4463 11.6362 51.7753 11.6944 52.0473 11.8106C52.3194 11.9269 52.5275 12.0989 52.6717 12.3268C52.8181 12.5523 52.8914 12.8314 52.8914 13.1639C52.8914 13.4173 52.8449 13.6405 52.7519 13.8335C52.6589 14.0265 52.5275 14.1892 52.3578 14.3218C52.188 14.452 51.9857 14.5531 51.7509 14.6252L51.4858 14.7543H49.871L49.864 14.0602H51.0743C51.2835 14.0602 51.4579 14.023 51.5974 13.9486C51.7369 13.8742 51.8416 13.773 51.9113 13.6452C51.9834 13.515 52.0194 13.3685 52.0194 13.2057C52.0194 13.029 51.9846 12.8755 51.9148 12.7453C51.8474 12.6128 51.7428 12.5116 51.6009 12.4419C51.4591 12.3698 51.2789 12.3338 51.0603 12.3338H50.1396V16.7144H49.2641V11.6362ZM52.1624 16.7144L50.9696 14.4334L51.8869 14.4299L53.0972 16.669V16.7144H52.1624ZM54.698 11.6362V16.7144H53.8226V11.6362H54.698ZM57.7707 11.6362V16.7144H56.9023V11.6362H57.7707ZM59.3646 11.6362V12.3338H55.3223V11.6362H59.3646ZM60.5748 11.6362L61.7537 14.0602L62.9325 11.6362H63.9021L62.1931 14.8449V16.7144H61.3107V14.8449L59.6018 11.6362H60.5748Z" fill="#424242"/>
<path d="M6.0094 29.5289L8.98455 21.7689H11.2056L6.83202 31.75H5.37872L6.0094 29.5289ZM5.71463 21.7689L6.26304 29.7003L6.22877 31.75H4.82345L3.60323 21.7689H5.71463ZM16.3127 30.091L16.018 31.75H11.8089L12.0899 30.091H16.3127ZM14.1465 21.7689L12.419 31.75H10.4584L12.1791 21.7689H14.1465ZM16.491 25.8134L16.2099 27.4244H12.5561L12.8303 25.8134H16.491ZM17.7386 21.7689L17.4438 23.4347H13.2416L13.5364 21.7689H17.7386ZM18.8766 21.7689L21.8929 21.7757C22.4915 21.794 22.9943 21.9242 23.401 22.1665C23.8123 22.4041 24.1162 22.7423 24.3127 23.181C24.5138 23.6152 24.5892 24.1316 24.539 24.7303C24.4978 25.2284 24.3904 25.6649 24.2168 26.0396C24.0477 26.4098 23.81 26.7343 23.5038 27.0131C23.1976 27.2873 22.8229 27.5272 22.3796 27.7329L21.7146 28.0893H19.0959L19.3839 26.4235L21.0428 26.4372C21.349 26.4327 21.6095 26.3618 21.8243 26.2247C22.0391 26.0876 22.2082 25.9025 22.3316 25.6695C22.4595 25.4364 22.5418 25.1782 22.5784 24.8948C22.6058 24.68 22.6081 24.4629 22.5852 24.2436C22.5669 24.0242 22.4984 23.8391 22.3796 23.6883C22.2607 23.5375 22.0711 23.4552 21.8106 23.4415L20.5561 23.4347L19.1165 31.75H17.1559L18.8766 21.7689ZM21.5912 31.75L20.5835 27.301L22.5578 27.2941L23.6821 31.6403V31.75H21.5912ZM28.4533 21.7689L26.7189 31.75H24.772L26.5064 21.7689H28.4533ZM32.0522 21.7689L30.3247 31.75H28.3641L30.0848 21.7689H32.0522ZM34.3556 26.0122L34.0608 27.6712H30.5235L30.8183 26.0122H34.3556ZM35.4593 21.7689L35.1645 23.4347H31.2639L31.5518 21.7689H35.4593ZM38.6126 21.7689L36.8783 31.75H34.9314L36.6658 21.7689H38.6126ZM44.3778 30.091L44.0831 31.75H39.874L40.155 30.091H44.3778ZM42.2116 21.7689L40.4841 31.75H38.5235L40.2442 21.7689H42.2116ZM44.5561 25.8134L44.275 27.4244H40.6212L40.8954 25.8134H44.5561ZM45.8037 21.7689L45.5089 23.4347H41.3067L41.6015 21.7689H45.8037ZM47.8466 31.75H46.0368L46.3384 30.091L47.9425 30.0979C48.4818 30.1025 48.9114 29.9928 49.2313 29.7689C49.5558 29.5403 49.798 29.2341 49.958 28.8503C50.1179 28.4618 50.2345 28.0231 50.3076 27.5341L50.5269 25.9711C50.5635 25.6832 50.5886 25.393 50.6023 25.1005C50.6206 24.808 50.5978 24.5384 50.5338 24.2916C50.4698 24.0448 50.3418 23.846 50.1499 23.6952C49.9625 23.5398 49.6838 23.4552 49.3136 23.4415L47.4421 23.4347L47.7369 21.7689L49.3958 21.7757C49.9991 21.7894 50.5109 21.9128 50.9314 22.1459C51.3518 22.379 51.6877 22.692 51.9391 23.0851C52.195 23.4781 52.3664 23.9237 52.4532 24.4218C52.5401 24.92 52.5492 25.4432 52.4807 25.9916L52.2476 27.5409C52.1562 28.1305 51.9939 28.6834 51.7609 29.1999C51.5324 29.7117 51.233 30.1596 50.8628 30.5435C50.4972 30.9228 50.0631 31.2199 49.5604 31.4347C49.0622 31.6495 48.491 31.7546 47.8466 31.75ZM48.9023 21.7689L47.1748 31.75H45.2142L46.9348 21.7689H48.9023Z" fill="#424242"/>
<path d="M3.7232 39.1975L4.96526 38.3199C5.10593 38.2144 5.21783 38.0977 5.30096 37.9698C5.38728 37.8419 5.43843 37.6901 5.45442 37.5142C5.46401 37.4023 5.44482 37.2824 5.39687 37.1545C5.34891 37.0235 5.253 36.9579 5.10913 36.9579C4.98764 36.9547 4.88693 36.9947 4.80701 37.0778C4.73028 37.1577 4.66953 37.2552 4.62477 37.3703C4.58321 37.4854 4.55604 37.5925 4.54325 37.6917C4.52087 37.8579 4.53685 38.0225 4.5912 38.1856C4.64555 38.3487 4.71429 38.5085 4.79742 38.6652C4.88374 38.8186 4.96366 38.9641 5.0372 39.1016L7.08493 42.9285H5.67981L4.0445 39.8353C3.93261 39.6179 3.8239 39.3957 3.7184 39.1687C3.6129 38.9417 3.52817 38.7067 3.46423 38.4637C3.40349 38.2208 3.38431 37.973 3.40669 37.7204C3.43226 37.3879 3.51858 37.0778 3.66565 36.7901C3.81591 36.4991 4.02053 36.2674 4.27949 36.0947C4.54165 35.9189 4.85336 35.8341 5.21463 35.8405C5.49917 35.8501 5.74695 35.9301 5.95796 36.0803C6.16896 36.2274 6.32882 36.4208 6.43752 36.6606C6.54622 36.8972 6.59258 37.1545 6.57659 37.4327C6.5638 37.6597 6.51425 37.8691 6.42793 38.0609C6.3416 38.2527 6.23131 38.4286 6.09703 38.5884C5.96275 38.7451 5.80929 38.8874 5.63665 39.0152L4.14042 40.1134C4.06688 40.187 4.00454 40.2749 3.95339 40.3772C3.90543 40.4763 3.86387 40.5818 3.8287 40.6937C3.79353 40.8024 3.77115 40.9063 3.76156 41.0054C3.74877 41.1205 3.75197 41.2484 3.77115 41.3891C3.79034 41.5265 3.83509 41.6464 3.90543 41.7487C3.97896 41.8511 4.08926 41.907 4.23633 41.9166C4.53046 41.9358 4.78942 41.8654 5.01322 41.7056C5.24021 41.5457 5.43363 41.3379 5.59349 41.0822C5.75654 40.8264 5.88442 40.5578 5.97714 40.2765C6.06985 39.9951 6.1322 39.7378 6.16417 39.5044L7.26236 39.4996C7.23359 39.8417 7.17125 40.1758 7.07533 40.5019C6.97942 40.8248 6.84355 41.1285 6.66771 41.4131C6.49187 41.6944 6.27127 41.9486 6.00591 42.1756C5.98033 42.2011 5.95156 42.2251 5.91959 42.2475C5.88762 42.2699 5.85885 42.2938 5.83327 42.3194C5.5807 42.5336 5.30895 42.7079 5.01801 42.8421C4.73028 42.9732 4.41536 43.034 4.07328 43.0244C3.70242 43.018 3.3891 42.9269 3.13334 42.751C2.87757 42.5752 2.68574 42.3418 2.55786 42.0509C2.42998 41.7599 2.37882 41.4386 2.4044 41.0869C2.42358 40.7992 2.49712 40.5434 2.625 40.3196C2.75288 40.0927 2.91274 39.888 3.10456 39.7058C3.29958 39.5236 3.5058 39.3541 3.7232 39.1975ZM13.2281 41.0534C13.2473 40.9095 13.2425 40.7848 13.2137 40.6793C13.1882 40.5738 13.1402 40.4811 13.0699 40.4012C13.0027 40.3181 12.9196 40.2445 12.8205 40.1806C12.7214 40.1134 12.6095 40.0511 12.4848 39.9935C12.2546 39.8817 12.0404 39.7586 11.8422 39.6243C11.644 39.49 11.4681 39.3381 11.3147 39.1687C11.1644 38.9993 11.0509 38.8058 10.9742 38.5884C10.8974 38.3678 10.8687 38.1201 10.8879 37.8451C10.9102 37.5318 10.9902 37.2505 11.1276 37.0011C11.2651 36.7517 11.4441 36.5407 11.6647 36.3681C11.8853 36.1922 12.1331 36.0611 12.4081 35.9748C12.683 35.8853 12.9707 35.8437 13.2713 35.8501C13.6901 35.8597 14.0418 35.962 14.3263 36.1571C14.6109 36.3489 14.8219 36.6062 14.9593 36.9291C15.1 37.2489 15.1639 37.6085 15.1512 38.0082L13.7844 38.0034C13.794 37.8499 13.7844 37.6948 13.7556 37.5382C13.7301 37.3815 13.6693 37.2537 13.5734 37.1545C13.4807 37.0522 13.3384 36.9995 13.1466 36.9963C12.9771 36.9963 12.8285 37.0347 12.7006 37.1114C12.5727 37.1849 12.4688 37.2856 12.3889 37.4135C12.309 37.5414 12.2578 37.6853 12.2354 37.8451C12.2194 37.9698 12.2322 38.0817 12.2738 38.1808C12.3185 38.2799 12.3793 38.3694 12.456 38.4494C12.5359 38.5261 12.6255 38.5964 12.7246 38.6604C12.8237 38.7243 12.9228 38.7771 13.0219 38.8186C13.2617 38.9401 13.4823 39.068 13.6837 39.2023C13.8883 39.3365 14.061 39.4916 14.2016 39.6674C14.3455 39.8401 14.4494 40.0399 14.5133 40.2669C14.5805 40.4939 14.6045 40.7529 14.5853 41.0438C14.5597 41.3667 14.4814 41.6512 14.3503 41.8974C14.2224 42.1436 14.053 42.353 13.842 42.5256C13.6309 42.6951 13.3896 42.823 13.1178 42.9093C12.8461 42.9956 12.5551 43.0356 12.245 43.0292C11.9125 43.0196 11.6152 42.9572 11.353 42.8421C11.0909 42.7239 10.8703 42.5624 10.6912 42.3578C10.5154 42.15 10.3843 41.907 10.298 41.6289C10.2117 41.3475 10.1781 41.0454 10.1973 40.7225L11.564 40.7273C11.5544 40.8775 11.556 41.023 11.5688 41.1637C11.5816 41.3044 11.6168 41.4274 11.6743 41.5329C11.7319 41.6384 11.815 41.7232 11.9237 41.7871C12.0324 41.8511 12.1763 41.883 12.3553 41.883C12.5248 41.883 12.6702 41.8479 12.7917 41.7775C12.9132 41.704 13.0107 41.6049 13.0842 41.4802C13.1578 41.3555 13.2057 41.2132 13.2281 41.0534ZM19.2658 41.7679L19.0596 42.9285H16.1151L16.3117 41.7679H19.2658ZM17.7504 35.946L16.5419 42.9285H15.1703L16.374 35.946H17.7504ZM19.3905 38.7755L19.1939 39.9024H16.6378L16.8296 38.7755H19.3905ZM20.2633 35.946L20.0571 37.1114H17.1174L17.3236 35.946H20.2633ZM23.462 40.6074L24.7808 40.5882C24.7296 41.0742 24.5937 41.5026 24.3731 41.8734C24.1557 42.2443 23.86 42.532 23.4859 42.7366C23.1151 42.9413 22.6771 43.0372 22.1719 43.0244C21.7499 43.0148 21.403 42.9237 21.1313 42.751C20.8595 42.5752 20.6501 42.345 20.5031 42.0605C20.356 41.7727 20.2649 41.4546 20.2297 41.1061C20.1946 40.7545 20.1993 40.3964 20.2441 40.0319L20.4263 38.8474C20.4839 38.4605 20.5814 38.0865 20.7189 37.7252C20.8563 37.3608 21.0386 37.0362 21.2656 36.7517C21.4926 36.464 21.7707 36.2386 22.1 36.0755C22.4325 35.9125 22.8162 35.8357 23.251 35.8453C23.7529 35.8549 24.1493 35.9716 24.4403 36.1954C24.7344 36.416 24.9454 36.7117 25.0733 37.0826C25.2012 37.4535 25.2667 37.8643 25.2699 38.3151L23.8984 38.3103C23.9112 38.0929 23.908 37.8867 23.8888 37.6917C23.8696 37.4934 23.8057 37.332 23.697 37.2073C23.5914 37.0794 23.4076 37.0107 23.1455 37.0011C22.8897 36.9915 22.6787 37.0426 22.5124 37.1545C22.3494 37.2664 22.2183 37.4151 22.1192 37.6005C22.0233 37.786 21.9497 37.9874 21.8986 38.2048C21.8506 38.4222 21.8123 38.6332 21.7835 38.8378L21.6157 40.0367C21.5933 40.203 21.5725 40.3884 21.5533 40.593C21.5373 40.7976 21.5421 40.9958 21.5677 41.1877C21.5933 41.3795 21.6588 41.5393 21.7643 41.6672C21.8698 41.7951 22.0409 41.8654 22.2774 41.8782C22.5556 41.8878 22.773 41.8367 22.9297 41.7248C23.0863 41.6129 23.203 41.4594 23.2797 41.2644C23.3597 41.0662 23.4204 40.8472 23.462 40.6074ZM29.5332 35.946H30.9L30.0847 40.7369C30.0208 41.2068 29.8801 41.6161 29.6627 41.9645C29.4485 42.3098 29.1624 42.5752 28.8043 42.7606C28.4462 42.9461 28.0242 43.0356 27.5382 43.0292C27.0779 43.0196 26.6958 42.9189 26.3921 42.7271C26.0884 42.532 25.871 42.2651 25.7399 41.9262C25.612 41.5841 25.5736 41.1893 25.6248 40.7417L26.44 35.946H27.802L27.0011 40.7465C26.9788 40.9383 26.9756 41.1189 26.9915 41.2884C27.0075 41.4546 27.0651 41.5905 27.1642 41.696C27.2633 41.7983 27.4263 41.8542 27.6533 41.8638C27.8931 41.8734 28.0849 41.8303 28.2288 41.7344C28.3759 41.6384 28.4862 41.5042 28.5597 41.3315C28.6364 41.1557 28.6924 40.9607 28.7276 40.7465L29.5332 35.946ZM31.9358 35.946L34.0459 35.9508C34.4647 35.9636 34.8164 36.0547 35.1009 36.2242C35.3887 36.3904 35.6013 36.627 35.7388 36.9339C35.8794 37.2377 35.9322 37.5989 35.897 38.0178C35.8682 38.3662 35.7931 38.6716 35.6716 38.9337C35.5533 39.1927 35.3871 39.4197 35.1729 39.6147C34.9587 39.8065 34.6965 39.9744 34.3864 40.1182L33.9212 40.3676H32.0893L32.2907 39.2023L33.4512 39.2119C33.6654 39.2087 33.8477 39.1591 33.9979 39.0632C34.1482 38.9673 34.2665 38.8378 34.3528 38.6748C34.4423 38.5117 34.4999 38.3311 34.5255 38.1328C34.5446 37.9826 34.5462 37.8307 34.5303 37.6773C34.5175 37.5238 34.4695 37.3943 34.3864 37.2888C34.3033 37.1833 34.1706 37.1258 33.9884 37.1162L33.1108 37.1114L32.1037 42.9285H30.7321L31.9358 35.946ZM33.8349 42.9285L33.1299 39.8161L34.5111 39.8113L35.2976 42.8517V42.9285H33.8349ZM40.098 41.7679L39.8918 42.9285H36.9472L37.1439 41.7679H40.098ZM38.5826 35.946L37.3741 42.9285H36.0025L37.2062 35.946H38.5826ZM40.2227 38.7755L40.026 39.9024H37.47L37.6618 38.7755H40.2227ZM41.0955 35.946L40.8892 37.1114H37.9495L38.1557 35.946H41.0955Z" fill="#424242"/>
<path fill-rule="evenodd" clip-rule="evenodd" d="M6.25002 3.57157H8.92859C9.4217 3.57157 9.82145 3.97131 9.82145 4.46443V8.03585L5.35716 8.03585V4.46443C5.35716 3.97131 5.75691 3.57157 6.25002 3.57157ZM4.4643 8.03585V4.46443C4.4643 3.4782 5.26379 2.67871 6.25002 2.67871H8.92859C9.91481 2.67871 10.7143 3.4782 10.7143 4.46443V8.03585L11.6072 8.03585C12.1003 8.03585 12.5 8.4356 12.5 8.92871V16.0716C12.5 16.5647 12.1003 16.9644 11.6072 16.9644H3.57145C3.07833 16.9644 2.67859 16.5647 2.67859 16.0716V8.92871C2.67859 8.4356 3.07833 8.03585 3.57145 8.03585H4.4643ZM8.03573 12.4239C8.55591 12.2401 8.92859 11.744 8.92859 11.1609C8.92859 10.4212 8.32897 9.82157 7.5893 9.82157C6.84964 9.82157 6.25002 10.4212 6.25002 11.1609C6.25002 11.744 6.6227 12.2401 7.14287 12.4239V14.2859H8.03573V12.4239Z" fill="#424242"/>
<path d="M28.5714 62.1173V55.5697C28.5714 55.5697 24.1994 55.0798 21.8045 54.1666C19.4096 53.2534 16.3063 50.8928 16.3063 50.8928C16.3063 50.8928 13.1205 53.2534 10.8082 54.1666C8.4959 55.0798 4.46423 55.5697 4.46423 55.5697V62.1173C4.46423 66.7942 5.17996 69.6003 7.00183 72.4064C8.82369 75.2125 16.3063 80.3571 16.3063 80.3571C16.3063 80.3571 23.4094 75.6802 25.6108 72.4064C27.8123 69.1326 28.5714 66.3265 28.5714 62.1173Z" fill="#52D300" stroke="#338100" stroke-width="1.78571"/>
<path d="M8.92847 63.8394L14.3144 68.7501L24.107 59.8215" stroke="white" stroke-width="2.67857"/>
<defs>
<linearGradient id="paint0_linear_1_19" x1="44.4196" y1="-1.32381e-06" x2="-1.44335e-06" y2="86.1607" gradientUnits="userSpaceOnUse">
<stop stop-color="#81C500"/>
<stop offset="0.383536" stop-color="#9DE317"/>
<stop offset="0.956314" stop-color="#81C500"/>
</linearGradient>
</defs>
</svg>
